<svg xmlns="http://www.w3.org/2000/svg" xmlns:xlink="http://www.w3.org/1999/xlink" width="86" height="81" viewBox="0 0 86 81">
  <defs>
    <linearGradient id="linear-gradient" x1="0.5" x2="0.5" y2="1" gradientUnits="objectBoundingBox">
      <stop offset="0" stop-color="#f09cd9"/>
      <stop offset="1" stop-color="#2b2448"/>
      <stop offset="1" stop-color="#645f79"/>
    </linearGradient>
    <linearGradient id="linear-gradient-2" y1="1" y2="0" xlink:href="#linear-gradient"/>
    <linearGradient id="linear-gradient-3" x1="0.5" x2="0.5" y2="1" gradientUnits="objectBoundingBox">
      <stop offset="0" stop-color="#f09cd9"/>
      <stop offset="0.716" stop-color="#855779"/>
      <stop offset="1" stop-color="#784e6d"/>
    </linearGradient>
    <radialGradient id="radial-gradient" cx="0.5" cy="0.5" r="1.427" gradientTransform="translate(0 0)" gradientUnits="objectBoundingBox">
      <stop offset="0" stop-color="#fff"/>
      <stop offset="1" stop-color="gray" stop-opacity="0.098"/>
    </radialGradient>
    <linearGradient id="linear-gradient-4" x1="0.5" x2="0.5" y2="1" gradientUnits="objectBoundingBox">
      <stop offset="0"/>
      <stop offset="0.61" stop-color="#484848" stop-opacity="0"/>
      <stop offset="1" stop-color="#545454" stop-opacity="0"/>
    </linearGradient>
  </defs>
  <g id="Group_21" data-name="Group 21" transform="translate(-255 -293)">
    <rect id="Rectangle_76" data-name="Rectangle 76" width="86" height="81" rx="26" transform="translate(255 293)" fill="#2b2448"/>
    <g id="Group_19" data-name="Group 19" transform="translate(-3301.95 -3932.003)">
      <g id="Group_16" data-name="Group 16" transform="translate(3576.5 4231.003)">
        <rect id="Rectangle_79" data-name="Rectangle 79" width="3.004" height="15.447" rx="1.502" transform="translate(22.377 1.716)" fill="#2b2448"/>
        <path id="Path_29" data-name="Path 29" d="M21.318,14.417c11.73,0,21.161-1.839,21.161,3.727S0,23.711,0,18.144,9.588,14.417,21.318,14.417Z" transform="translate(2.425 38.18)" fill="#c7bdf2"/>
        <path id="Path_30" data-name="Path 30" d="M21.239,0c11.73,0,21.239,4.513,21.239,10.079S0,15.646,0,10.079,9.509,0,21.239,0Z" transform="translate(2.425 42.147)" fill="#1b1439"/>
        <rect id="Rectangle_80" data-name="Rectangle 80" width="40.333" height="33.468" rx="16.734" transform="translate(3.498 18.021)" fill="url(#linear-gradient)"/>
        <ellipse id="Ellipse_20" data-name="Ellipse 20" cx="19.308" cy="14.803" rx="19.308" ry="14.803" transform="translate(4.356 8.152)" fill="#c7bdf2"/>
        <path id="Path_31" data-name="Path 31" d="M17.463,13.037H29.437C39.081,13.037,46.9,9.484,46.9,5.1V3.287C46.9-1.1,0-1.1,0,3.287V5.1C0,9.484,7.818,13.037,17.463,13.037Z" transform="translate(0 18.917)" fill="url(#linear-gradient-2)"/>
        <path id="Path_32" data-name="Path 32" d="M21.132,0C32.8,0,42.264,4.715,42.264,10.531S0,16.347,0,10.531,9.461,0,21.132,0Z" transform="translate(2.64 22.911)" fill="#1b1439"/>
        <g id="Ellipse_21" data-name="Ellipse 21" transform="translate(10.363 51.489)" fill="#fff" stroke="#1d153e" stroke-width="1" opacity="0.454">
          <ellipse cx="1.931" cy="1.716" rx="1.931" ry="1.716" stroke="none"/>
          <ellipse cx="1.931" cy="1.716" rx="1.431" ry="1.216" fill="none"/>
        </g>
        <rect id="Rectangle_81" data-name="Rectangle 81" width="26.174" height="9.869" rx="4.934" transform="translate(10.363 39.046)" fill="#f09cd9" opacity="0.484"/>
        <g id="Ellipse_22" data-name="Ellipse 22" transform="translate(21.948 52.347)" fill="#fff" stroke="#1d153e" stroke-width="1" opacity="0.454">
          <ellipse cx="1.931" cy="1.716" rx="1.931" ry="1.716" stroke="none"/>
          <ellipse cx="1.931" cy="1.716" rx="1.431" ry="1.216" fill="none"/>
        </g>
        <g id="Ellipse_23" data-name="Ellipse 23" transform="translate(33.533 51.489)" fill="#fff" stroke="#1d153e" stroke-width="1" opacity="0.454">
          <ellipse cx="1.931" cy="1.716" rx="1.931" ry="1.716" stroke="none"/>
          <ellipse cx="1.931" cy="1.716" rx="1.431" ry="1.216" fill="none"/>
        </g>
        <rect id="Rectangle_82" data-name="Rectangle 82" width="24.028" height="7.294" rx="3.647" transform="translate(11.221 40.333)" fill="#fff"/>
        <rect id="Rectangle_83" data-name="Rectangle 83" width="24.028" height="2.145" transform="translate(11.221 43.766)"/>
        <rect id="Rectangle_84" data-name="Rectangle 84" width="24.028" height="3.862" rx="1.931" transform="translate(11.221 43.766)"/>
        <ellipse id="Ellipse_24" data-name="Ellipse 24" cx="2.36" cy="1.931" rx="2.36" ry="1.931" transform="translate(21.519 0)" fill="url(#linear-gradient-3)"/>
        <ellipse id="Ellipse_25" data-name="Ellipse 25" cx="4.505" cy="4.076" rx="4.505" ry="4.076" transform="translate(9.934 27.89)" fill="#fff"/>
        <g id="Ellipse_26" data-name="Ellipse 26" transform="translate(29.242 29.177)" fill="#fff" stroke="#1b1439" stroke-width="1">
          <ellipse cx="3.647" cy="3.433" rx="3.647" ry="3.433" stroke="none"/>
          <ellipse cx="3.647" cy="3.433" rx="3.147" ry="2.933" fill="none"/>
        </g>
        <path id="Path_33" data-name="Path 33" d="M-.749.5H21.8" transform="translate(13.564 43.48)" fill="none" stroke="#1b1439" stroke-width="1" opacity="0.052"/>
        <rect id="Rectangle_85" data-name="Rectangle 85" width="5.149" height="2.145" rx="1" transform="translate(24.952 45.482)" fill="#fff"/>
        <path id="Path_34" data-name="Path 34" d="M.429,0H4.291A.429.429,0,0,1,4.72.429v.858a.429.429,0,0,1-.429.429H.429A.429.429,0,0,1,0,1.287V.429A.429.429,0,0,1,.429,0Z" transform="translate(19.803 45.911)" fill="#fff"/>
        <path id="Path_35" data-name="Path 35" d="M.429,0H4.291A.429.429,0,0,1,4.72.429v.858a.429.429,0,0,1-.429.429H.429A.429.429,0,0,1,0,1.287V.429A.429.429,0,0,1,.429,0Z" transform="translate(12.508 45.911)" fill="#fff"/>
        <path id="Path_36" data-name="Path 36" d="M3592,4332.9v-3.46" transform="translate(-3574.772 -4288.916)" fill="none" stroke="#000" stroke-width="1" opacity="0.094"/>
        <path id="Path_37" data-name="Path 37" d="M3592,4332.9v-3.46" transform="translate(-3570.481 -4289.019)" fill="none" stroke="#000" stroke-width="1" opacity="0.094"/>
        <path id="Path_38" data-name="Path 38" d="M3592,4332.9v-3.46" transform="translate(-3566.19 -4289.019)" fill="none" stroke="#000" stroke-width="1" opacity="0.094"/>
        <path id="Path_39" data-name="Path 39" d="M3592,4332.9v-3.46" transform="translate(-3561.899 -4288.916)" fill="none" stroke="#000" stroke-width="1" opacity="0.094"/>
        <ellipse id="Ellipse_27" data-name="Ellipse 27" cx="1.073" cy="5.007" rx="1.073" ry="5.007" transform="translate(28.779 8.02) rotate(90)" opacity="0.09" fill="url(#radial-gradient)"/>
      </g>
      <ellipse id="Ellipse_28" data-name="Ellipse 28" cx="16.305" cy="16.734" rx="16.305" ry="16.734" transform="translate(3580.147 4240.012)" opacity="0.037" fill="url(#linear-gradient-4)"/>
    </g>
  </g>
</svg>
