<svg xmlns="http://www.w3.org/2000/svg" xmlns:xlink="http://www.w3.org/1999/xlink" width="98" height="75" viewBox="0 0 98 75">
  <defs>
    <filter id="Rectangle_47" x="14" y="18" width="73" height="50" filterUnits="userSpaceOnUse">
      <feOffset dy="3" input="SourceAlpha"/>
      <feGaussianBlur stdDeviation="3" result="blur"/>
      <feFlood flood-color="#f09cd9" flood-opacity="0.404"/>
      <feComposite operator="in" in2="blur"/>
      <feComposite in="SourceGraphic"/>
    </filter>
    <linearGradient id="linear-gradient" x1="0.5" x2="0.5" y2="1" gradientUnits="objectBoundingBox">
      <stop offset="0" stop-color="#f09cd9"/>
      <stop offset="1" stop-color="#513caa"/>
    </linearGradient>
  </defs>
  <g id="Group_27" data-name="Group 27" transform="translate(-594 -400)">
    <g id="Rectangle_53" data-name="Rectangle 53" transform="translate(594 400)" fill="#f09cd9" stroke="rgba(240,156,217,0.55)" stroke-width="1" opacity="0.613">
      <rect width="98" height="75" rx="25" stroke="none"/>
      <rect x="0.5" y="0.5" width="97" height="74" rx="24.5" fill="none"/>
    </g>
    <g id="Group_12" data-name="Group 12" transform="translate(253 139)">
      <g transform="matrix(1, 0, 0, 1, 341, 261)" filter="url(#Rectangle_47)">
        <rect id="Rectangle_47-2" data-name="Rectangle 47" width="55" height="32" rx="10" transform="translate(23 24)" fill="#fff"/>
      </g>
      <path id="Polygon_6" data-name="Polygon 6" d="M34.084.758a3,3,0,0,1,2.831,0l23.537,12.6A3,3,0,0,1,59.037,19H11.963a3,3,0,0,1-1.416-5.645Z" transform="translate(427 304) rotate(180)" fill="url(#linear-gradient)"/>
    </g>
  </g>
</svg>
